<?xml version="1.0" encoding="utf-8"?>
<!-- Generator: Adobe Illustrator 23.0.1, SVG Export Plug-In . SVG Version: 6.00 Build 0)  -->
<svg version="1.1" id="Layer_1" xmlns="http://www.w3.org/2000/svg" xmlns:xlink="http://www.w3.org/1999/xlink" x="0px" y="0px"
	 viewBox="0 0 707.48 293.47" style="enable-background:new 0 0 707.48 293.47;" xml:space="preserve">
<style type="text/css">
	.st0{fill:#FEC400;}
</style>
<g>
	<path d="M388.36,228.6h-69.25c-26.09,0-47.24-21.15-47.24-47.24v-69.25c0-26.09,21.15-47.24,47.24-47.24h69.25
		c26.09,0,47.24,21.15,47.24,47.24v69.25C435.6,207.45,414.45,228.6,388.36,228.6z"/>
	<path class="st0" d="M397.78,133.64c-0.14-1.4-0.35-2.79-0.62-4.15c-0.73-3.65-1.91-7.14-3.47-10.41
		c-1.46-3.05-3.27-5.91-5.36-8.53c-0.41-0.51-0.83-1.01-1.25-1.5c-0.04-0.05-0.09-0.1-0.14-0.14l-3.93-3.93
		c-0.04-0.04-0.09-0.09-0.14-0.13c-0.49-0.43-0.98-0.84-1.49-1.25c-2.61-2.09-5.47-3.9-8.53-5.36c-3.27-1.57-6.76-2.74-10.41-3.47
		c-1.36-0.27-2.75-0.48-4.15-0.62c-1.5-0.15-3.02-0.23-4.55-0.23c-1.54,0-3.06,0.08-4.55,0.23c-1.41,0.14-2.79,0.35-4.15,0.62
		c-3.65,0.73-7.14,1.91-10.41,3.47c-3.05,1.46-5.91,3.27-8.53,5.36c-0.51,0.41-1,0.82-1.49,1.25c-0.05,0.04-0.09,0.08-0.14,0.13
		l-3.93,3.93c-0.05,0.05-0.09,0.09-0.14,0.14c-0.43,0.49-0.85,0.99-1.25,1.5c-2.09,2.62-3.89,5.47-5.36,8.53
		c-1.57,3.27-2.75,6.76-3.47,10.41c-0.27,1.36-0.48,2.74-0.62,4.15c-0.15,1.5-0.23,3.02-0.23,4.56c0,1.54,0.08,3.06,0.23,4.56
		c0.14,1.4,0.35,2.79,0.62,4.15c0.73,3.65,1.9,7.14,3.47,10.41c1.46,3.05,3.27,5.91,5.36,8.53c0.41,0.51,0.83,1.01,1.26,1.5
		c0.04,0.05,0.09,0.1,0.13,0.14l3.99,3.99l1.44,1.44l6.94,6.94l13.88,13.88l5.01,5.01c1.07,1.07,2.8,1.07,3.87,0l11.95-11.95
		l6.94-6.94l6.94-6.94l-0.13-0.13c0.51-0.41,1-0.82,1.49-1.25c0.05-0.04,0.1-0.09,0.14-0.13l3.92-3.92
		c0.05-0.05,0.09-0.09,0.13-0.14c0.43-0.49,0.85-0.99,1.26-1.5c2.09-2.62,3.9-5.47,5.36-8.53c1.57-3.27,2.75-6.76,3.47-10.41
		c0.27-1.36,0.48-2.74,0.62-4.15c0.15-1.5,0.23-3.02,0.23-4.56C398.01,136.66,397.93,135.14,397.78,133.64z M388.11,138.53
		c-0.04,3.94-0.74,7.71-1.99,11.23c-1.16,3.27-2.81,6.31-4.85,9.03c-0.77,1.03-1.59,2.01-2.47,2.94c0,0.01-0.01,0.01-0.01,0.02
		c-0.48,0.51-0.97,1.01-1.49,1.49c0,0-0.01,0.01-0.01,0.01c0,0.01-0.01,0.01-0.01,0.01l-2.71,2.71l-5.01,5.01
		c-1.07,1.07-2.8,1.07-3.87,0l-0.39-0.39l-4.62-4.62l0,0c-1.42-1.42-0.88-3.86,1.03-4.51c1.99-0.68,3.87-1.61,5.59-2.76
		c1.02-0.68,1.98-1.42,2.89-2.24c0,0,0,0,0.01-0.01l1.81-1.81c0,0,0,0,0.01-0.01c0.81-0.9,1.56-1.86,2.23-2.88
		c1.96-2.96,3.3-6.38,3.83-10.06c0.16-1.14,0.25-2.31,0.25-3.5c0-1.19-0.08-2.36-0.25-3.5c-0.52-3.68-1.86-7.09-3.83-10.06
		c-0.67-1.02-1.42-1.98-2.23-2.88l-0.01-0.01l-1.81-1.81c0,0,0,0-0.01-0.01c-0.9-0.81-1.87-1.56-2.89-2.24
		c-2.96-1.96-6.38-3.3-10.06-3.83c-1.14-0.16-2.31-0.25-3.5-0.25c-1.19,0-2.36,0.08-3.5,0.25c-3.68,0.52-7.09,1.86-10.06,3.83
		c-1.02,0.67-1.98,1.42-2.89,2.24c0,0,0,0.01-0.01,0.01l-1.75,1.75c-0.04,0.04-0.1,0.1-0.13,0.14c-0.79,0.88-1.51,1.82-2.17,2.81
		c-1.96,2.96-3.3,6.38-3.83,10.06c-0.16,1.14-0.25,2.31-0.25,3.5c0,1.19,0.08,2.36,0.25,3.5c0.52,3.68,1.86,7.09,3.83,10.06
		c0.67,1.01,1.42,1.98,2.23,2.88c0,0,0,0,0.01,0.01l1.81,1.81l0.01,0.01l2.56,2.56l6.94,6.94l6.61,6.61h0l0.33,0.33l5.01,5.01
		c1.07,1.07,1.07,2.8,0,3.87l-0.46,0.46l-2.62,2.62c-1.07,1.07-2.8,1.07-3.87,0l-2.62-2.62l-2.39-2.39l-6.94-6.94l-9.65-9.65
		c0,0-0.01-0.01-0.01-0.01c0,0-0.01-0.01-0.01-0.01c-0.51-0.48-1.01-0.97-1.49-1.49c0-0.01-0.01-0.01-0.01-0.02
		c-0.88-0.93-1.7-1.91-2.47-2.94c-2.04-2.73-3.69-5.76-4.85-9.03c-1.26-3.51-1.95-7.29-1.99-11.23c0-0.11,0-0.22,0-0.33
		c0-0.11,0-0.22,0-0.33c0.04-3.94,0.74-7.71,1.99-11.23c1.16-3.27,2.81-6.31,4.85-9.03c0.77-1.03,1.59-2.01,2.47-2.94
		c0.49-0.53,1-1.04,1.53-1.53c0.93-0.88,1.92-1.7,2.94-2.47c2.73-2.04,5.76-3.69,9.03-4.85c3.51-1.25,7.29-1.95,11.23-1.99
		c0.11,0,0.22,0,0.33,0c0.11,0,0.22,0,0.33,0c3.94,0.04,7.71,0.74,11.23,1.99c3.27,1.17,6.3,2.81,9.03,4.85
		c1.03,0.77,2.01,1.59,2.94,2.47c0.53,0.49,1.04,1,1.53,1.53c0.88,0.93,1.7,1.91,2.47,2.94c2.04,2.73,3.69,5.76,4.85,9.03
		c1.25,3.51,1.95,7.29,1.99,11.23c0,0.11,0,0.22,0,0.33C388.12,138.31,388.12,138.42,388.11,138.53z M350.27,134.73L350.27,134.73
		c-1.92,1.92-1.92,5.03,0,6.94l3.47,3.47l3.01,3.01c1.64,1.64,0.62,4.45-1.69,4.66c-0.43,0.04-0.87,0.06-1.32,0.06
		c-2.26,0-4.39-0.51-6.3-1.42c-3.04-1.45-5.49-3.91-6.94-6.94c-0.91-1.91-1.42-4.05-1.42-6.3c0-2.26,0.51-4.39,1.42-6.3
		c1.45-3.04,3.91-5.49,6.94-6.94c1.91-0.91,4.05-1.42,6.3-1.42s4.39,0.51,6.3,1.42c3.04,1.45,5.5,3.9,6.94,6.94
		c0.91,1.91,1.42,4.05,1.42,6.3c0,0.44-0.02,0.88-0.06,1.31c-0.21,2.31-3.02,3.33-4.66,1.69l-6.48-6.48
		C355.29,132.81,352.18,132.81,350.27,134.73z"/>
</g>
</svg>
